<?xml version="1.0" standalone="no"?><!DOCTYPE svg PUBLIC "-//W3C//DTD SVG 1.1//EN" "http://www.w3.org/Graphics/SVG/1.1/DTD/svg11.dtd"><svg t="1627633293116" class="icon" viewBox="0 0 1024 1024" version="1.1" xmlns="http://www.w3.org/2000/svg" p-id="18540" xmlns:xlink="http://www.w3.org/1999/xlink" width="200" height="200"><defs><style type="text/css">@font-face { font-family: feedback-iconfont; src: url("//at.alicdn.com/t/font_1031158_1uhr8ri0pk5.eot?#iefix") format("embedded-opentype"), url("//at.alicdn.com/t/font_1031158_1uhr8ri0pk5.woff2") format("woff2"), url("//at.alicdn.com/t/font_1031158_1uhr8ri0pk5.woff") format("woff"), url("//at.alicdn.com/t/font_1031158_1uhr8ri0pk5.ttf") format("truetype"), url("//at.alicdn.com/t/font_1031158_1uhr8ri0pk5.svg#iconfont") format("svg"); }
</style></defs><path d="M940.563026 883.249349 140.866944 883.249349 140.866944 83.55226c0-37.061955-30.045063-67.107019-67.107019-67.107019l-5.593175 0c-37.061955 0-67.107019 30.045063-67.107019 67.107019l0 866.726578c0 0.027186-0.002014 0.052357-0.002014 0.077529l0 5.593175c0 37.061955 30.045063 67.106012 67.107019 67.106012l0.002014 0 5.593175 0L940.563026 1023.055554c37.062962 0 67.107019-30.045063 67.107019-67.106012l0-5.593175C1007.671052 913.294413 977.625988 883.249349 940.563026 883.249349z" p-id="18541"></path><path d="M276.709094 771.78156 172.791838 715.100702 374.364612 345.548436 523.082641 464.523463 633.791249 326.137955 736.511334 403.178774 899.636696 100.233111 1003.858027 156.35012 775.524607 580.399339 654.551945 489.672108 541.570827 630.901023 410.671413 526.183304Z" p-id="18542"></path></svg>